<svg width="143" height="93" viewBox="0 0 143 93" fill="none" xmlns="http://www.w3.org/2000/svg">
<g clip-path="url(#clip0_62_64)">
<path fill-rule="evenodd" clip-rule="evenodd" d="M41.4292 77.0791C41.2836 80.3546 42.4761 83.5457 44.7335 85.9146C46.9908 88.2836 50.1164 89.623 53.385 89.623C71.8779 89.6358 108.869 89.6358 126.918 89.6358C133.429 89.6358 138.748 84.4241 138.896 77.8986C139.216 62.6425 133.281 37.9336 91.1829 37.9336C49.8304 37.9336 42.1186 61.7769 41.4292 77.0791Z" stroke="#F7B12E" stroke-width="5.51034" stroke-miterlimit="2" stroke-linecap="round" stroke-linejoin="round"/>
<path d="M107.753 40.6562C109.73 43.5938 113.31 50.57 114.548 63.785" stroke="#F7B12E" stroke-width="5.51034" stroke-miterlimit="2" stroke-linecap="round" stroke-linejoin="round"/>
<path d="M86.0607 38.9307C86.0607 38.9307 92.4574 45.1668 94.1989 63.7855" stroke="#F7B12E" stroke-width="5.51034" stroke-miterlimit="2" stroke-linecap="round" stroke-linejoin="round"/>
<path d="M68.64 43.3765C70.5654 47.1642 72.8994 53.6334 73.8493 63.7854" stroke="#F7B12E" stroke-width="5.51034" stroke-miterlimit="2" stroke-linecap="round" stroke-linejoin="round"/>
<path d="M91.653 36.976C95.3939 32.9783 96.2596 26.8523 93.3894 21.8634C85.7542 8.60999 68.201 -8.54385 32.5914 12.2697C-2.35165 32.694 1.95877 56.5705 8.79468 70.3028C10.3677 73.458 13.1715 75.8168 16.5422 76.8258C19.9104 77.8323 23.5467 77.3969 26.5854 75.6196C27.8392 74.8871 29.1849 74.1009 30.6073 73.2685" stroke="#F7B12E" stroke-width="5.51034" stroke-miterlimit="2" stroke-linecap="round" stroke-linejoin="round"/>
<path d="M48.2751 6.25397C51.9727 6.23861 59.0742 8.9405 65.7569 22.806" stroke="#F7B12E" stroke-width="5.51034" stroke-miterlimit="2" stroke-linecap="round" stroke-linejoin="round"/>
<path d="M28.6665 15.7178C29.2053 14.2273 38.9446 13.4052 48.1758 33.0817" stroke="#F7B12E" stroke-width="5.51034" stroke-miterlimit="2" stroke-linecap="round" stroke-linejoin="round"/>
<path d="M15.8475 28.356C21.1871 29.8618 27.4714 33.8212 30.5944 43.3585" stroke="#F7B12E" stroke-width="5.51034" stroke-miterlimit="2" stroke-linecap="round" stroke-linejoin="round"/>
</g>
<defs>
<clipPath id="clip0_62_64">
<rect width="143" height="92.1974" fill="white"/>
</clipPath>
</defs>
</svg>
