<svg width="92" height="92" viewBox="0 0 92 92" fill="none" xmlns="http://www.w3.org/2000/svg">
<g clip-path="url(#clip0_62_79)">
<path d="M88.2727 34.7724L79.8303 29.1459C78.7879 28.451 77.9331 27.5095 77.3419 26.4049C76.7507 25.3004 76.4413 24.0669 76.4412 22.8141V15.559H78.978C79.6508 15.559 80.296 15.2917 80.7717 14.816C81.2475 14.3402 81.5147 13.695 81.5147 13.0222V2.87514C81.5147 2.20235 81.2475 1.55712 80.7717 1.08138C80.296 0.605645 79.6508 0.338379 78.978 0.338379H53.6103C52.9375 0.338379 52.2923 0.605645 51.8166 1.08138C51.3408 1.55712 51.0736 2.20235 51.0736 2.87514V13.0222C51.0736 13.695 51.3408 14.3402 51.8166 14.816C52.2923 15.2917 52.9375 15.559 53.6103 15.559H56.1471V22.8141C56.147 24.0669 55.8376 25.3004 55.2464 26.4049C54.6552 27.5095 53.8004 28.451 52.758 29.1459L44.3156 34.7724C43.2732 35.4673 42.4184 36.4088 41.8272 37.5134C41.236 38.6179 40.9266 39.8514 40.9265 41.1042V50.7896L35.853 27.9587V18.0957C35.853 17.4229 35.5857 16.7777 35.11 16.302C34.6342 15.8262 33.989 15.559 33.3162 15.559H30.0742L25.5791 2.07353C25.3684 1.61121 25.0292 1.21925 24.6019 0.944398C24.1746 0.669548 23.6772 0.523408 23.1691 0.523408C22.6611 0.523408 22.1637 0.669548 21.7364 0.944398C21.3091 1.21925 20.9699 1.61121 20.7592 2.07353L16.2641 15.559H13.0221C12.3493 15.559 11.7041 15.8262 11.2283 16.302C10.7526 16.7777 10.4853 17.4229 10.4853 18.0957V27.9739L0.536131 73.3617C0.496659 73.528 0.476233 73.6982 0.475248 73.869L0.383925 83.9755C0.373867 84.9813 0.563287 85.9791 0.941234 86.9112C1.31918 87.8434 1.87816 88.6913 2.58584 89.4061C3.29353 90.1208 4.13588 90.6882 5.0642 91.0754C5.99252 91.4626 6.98838 91.662 7.99422 91.6619H38.3897C39.7566 91.6576 41.097 91.2838 42.2688 90.58C43.4406 89.8762 44.4003 88.8686 45.0462 87.664L45.1325 87.7249L52.4738 91.393C52.8266 91.5698 53.2157 91.6619 53.6103 91.6619H78.978C79.3725 91.6619 79.7617 91.5698 80.1144 91.393L87.4558 87.7249C88.7234 87.0968 89.7895 86.1258 90.5329 84.9223C91.2764 83.7187 91.6675 82.3308 91.6618 80.9162V41.1042C91.6617 39.8514 91.3523 38.6179 90.7611 37.5134C90.1699 36.4088 89.3151 35.4673 88.2727 34.7724ZM56.1471 5.41191H76.4412V10.4854H56.1471V5.41191ZM23.1691 10.8964L24.7267 15.559H21.6116L23.1691 10.8964ZM15.5589 20.6325H30.7794V25.706H15.5589V20.6325ZM40.9265 84.0516C40.9265 84.7244 40.6592 85.3697 40.1835 85.8454C39.7078 86.3211 39.0625 86.5884 38.3897 86.5884H7.99422C7.32143 86.5884 6.67619 86.3211 6.20046 85.8454C5.72472 85.3697 5.45745 84.7244 5.45745 84.0516L5.5437 74.2141L15.0515 30.7796H31.2868L40.9265 74.1836V84.0516ZM86.5883 80.9162C86.5882 81.3869 86.4573 81.8483 86.21 82.2488C85.9627 82.6494 85.6088 82.9732 85.188 83.1841L78.3793 86.5884H54.209L47.4003 83.1841C46.9795 82.9732 46.6256 82.6494 46.3783 82.2488C46.131 81.8483 46 81.3869 46 80.9162V41.1042C46.0002 40.6864 46.1036 40.2752 46.301 39.907C46.4984 39.5388 46.7836 39.225 47.1314 38.9936L55.5738 33.3671C57.3109 32.2087 58.7351 30.6394 59.7202 28.7985C60.7053 26.9576 61.2206 24.902 61.2206 22.8141V15.559H71.3677V22.8141C71.3676 24.902 71.883 26.9576 72.8681 28.7985C73.8531 30.6394 75.2774 32.2087 77.0145 33.3671L85.4569 38.9936C85.8047 39.225 86.0899 39.5388 86.2873 39.907C86.4847 40.2752 86.5881 40.6864 86.5883 41.1042V80.9162Z" fill="#F7B12E"/>
<path d="M78.9779 40.9268H53.6103C52.9375 40.9268 52.2922 41.194 51.8165 41.6698C51.3407 42.1455 51.0735 42.7907 51.0735 43.4635V73.9047C51.0735 74.5775 51.3407 75.2227 51.8165 75.6985C52.2922 76.1742 52.9375 76.4415 53.6103 76.4415H78.9779C79.6507 76.4415 80.2959 76.1742 80.7717 75.6985C81.2474 75.2227 81.5147 74.5775 81.5147 73.9047V43.4635C81.5147 42.7907 81.2474 42.1455 80.7717 41.6698C80.2959 41.194 79.6507 40.9268 78.9779 40.9268ZM76.4411 71.3679H56.147V46.0003H76.4411V71.3679Z" fill="#F7B12E"/>
<path d="M30.7034 58.0698C30.5665 57.5208 30.2499 57.0333 29.804 56.6849C29.3582 56.3365 28.8086 56.1471 28.2427 56.147H18.0957C17.5298 56.1471 16.9803 56.3365 16.5344 56.6849C16.0885 57.0333 15.772 57.5208 15.635 58.0698L10.5615 78.364C10.4682 78.7378 10.4614 79.128 10.5415 79.505C10.6215 79.8819 10.7864 80.2356 11.0236 80.5393C11.2607 80.843 11.564 81.0886 11.9103 81.2576C12.2566 81.4266 12.6368 81.5145 13.0221 81.5146H33.3163C33.7016 81.5145 34.0818 81.4266 34.4281 81.2576C34.7744 81.0886 35.0777 80.843 35.3148 80.5393C35.552 80.2356 35.7169 79.8819 35.797 79.505C35.877 79.128 35.8702 78.7378 35.7769 78.364L30.7034 58.0698ZM16.2743 76.4411L20.0794 61.2205H26.259L30.0641 76.4411H16.2743Z" fill="#F7B12E"/>
</g>
<defs>
<clipPath id="clip0_62_79">
<rect width="92" height="92" fill="white"/>
</clipPath>
</defs>
</svg>
