<svg width="91" height="92" viewBox="0 0 91 92" fill="none" xmlns="http://www.w3.org/2000/svg">
<g clip-path="url(#clip0_62_74)">
<path d="M83.6925 40.943C83.5047 40.8577 83.3021 40.8103 83.096 40.8036C82.89 40.7969 82.6847 40.831 82.4918 40.9039C82.299 40.9767 82.1224 41.087 81.9721 41.2284C81.8219 41.3698 81.701 41.5394 81.6164 41.7277C80.2407 44.7643 75.9193 47.2406 72.8419 48.6153C73.3643 43.3996 73.0965 38.1348 72.0475 32.9993C72.0135 32.7907 71.9378 32.5912 71.8249 32.4127C71.712 32.2342 71.5643 32.0804 71.3906 31.9604C71.2169 31.8405 71.0208 31.7569 70.8141 31.7147C70.6074 31.6725 70.3943 31.6726 70.1876 31.7149C69.9809 31.7572 69.7848 31.8408 69.6112 31.9608C69.4376 32.0809 69.2899 32.2348 69.1771 32.4133C69.0643 32.5919 68.9887 32.7914 68.9547 33C68.9208 33.2085 68.9293 33.4218 68.9796 33.627C70.1396 39.2979 70.2829 45.1304 69.4027 50.8516C69.4027 50.8861 69.3886 50.919 69.3854 50.9536C69.2946 51.5358 69.2084 52.118 69.0956 52.6955C63.892 48.7817 57.0213 42.8733 56.2833 40.0783C56.2338 39.8758 56.1444 39.6852 56.0204 39.5177C55.8964 39.3502 55.7404 39.209 55.5614 39.1026C55.3823 38.9962 55.1839 38.9265 54.9777 38.8978C54.7715 38.869 54.5616 38.8817 54.3604 38.9351C54.1591 38.9885 53.9705 39.0815 53.8055 39.2087C53.6406 39.3359 53.5026 39.4948 53.3996 39.6761C53.2967 39.8573 53.2308 40.0573 53.2059 40.2643C53.181 40.4714 53.1976 40.6813 53.2546 40.8818C54.4987 45.5897 65.0327 53.6167 68.3168 56.024C67.5304 58.9415 66.4723 61.7787 65.1565 64.4982C64.9998 64.812 64.8556 65.1447 64.6864 65.4617C55.5563 58.8864 46.3228 51.0148 45.8433 48.4866C45.7658 48.0777 45.5293 47.7164 45.1858 47.4821C44.8423 47.2479 44.4199 47.1599 44.0117 47.2375C43.6034 47.3151 43.2426 47.552 43.0087 47.896C42.7748 48.2401 42.6869 48.6631 42.7644 49.072C43.6716 53.863 58.0884 64.586 63.1572 68.2268C61.7798 70.5432 60.2155 72.7428 58.4801 74.8037C58.3473 74.9613 58.2467 75.1435 58.1842 75.34C58.1217 75.5364 58.0984 75.7433 58.1157 75.9488C58.1331 76.1542 58.1906 76.3543 58.2851 76.5375C58.3796 76.7207 58.5092 76.8834 58.6665 77.0164C58.8238 77.1495 59.0058 77.2502 59.2019 77.3128C59.3981 77.3754 59.6046 77.3987 59.8098 77.3813C60.0149 77.364 60.2147 77.3064 60.3976 77.2117C60.5805 77.1171 60.743 76.9872 60.8758 76.8297C63.5726 73.6269 65.8752 70.1111 67.734 66.3578C70.1892 65.3644 78.7349 61.7441 81.5036 58.4187C81.6354 58.2604 81.7349 58.0777 81.7963 57.8809C81.8577 57.6841 81.8798 57.4772 81.8613 57.2719C81.8428 57.0665 81.7841 56.8669 81.6886 56.6843C81.5931 56.5017 81.4626 56.3397 81.3046 56.2076C81.1465 56.0755 80.9641 55.9758 80.7676 55.9144C80.5711 55.8529 80.3645 55.8308 80.1595 55.8493C79.9545 55.8678 79.7551 55.9266 79.5728 56.0222C79.3905 56.1179 79.2287 56.2486 79.0969 56.4069C77.5692 58.243 73.113 60.5404 69.6032 62.1332C70.8495 58.9219 71.7687 55.5928 72.3468 52.1965C74.9212 51.2156 82.1757 48.0692 84.4681 43.0145C84.6381 42.6366 84.652 42.2067 84.5067 41.8186C84.3614 41.4305 84.0687 41.1157 83.6925 40.943Z" fill="#F7B12E"/>
<path d="M86.3044 22.8821C86.2263 22.6487 86.1835 22.4048 86.1775 22.1587C86.1813 20.768 85.6729 19.4247 84.7495 18.3861C83.826 17.3475 82.5526 16.6864 81.1729 16.5296C78.9791 14.8472 77.0309 12.8659 75.3849 10.6432C72.6507 7.40258 69.8241 4.05213 67.2012 2.92695C66.7282 2.73274 66.2397 2.57893 65.7409 2.46715C65.6907 2.44988 65.6375 2.44675 65.5842 2.43419C62.9993 2.05141 60.3676 2.12044 57.8063 2.6382C56.0715 2.94388 54.3124 3.08939 52.551 3.07289C50.2694 2.84261 48.0221 2.34811 45.8542 1.59933C42.6375 0.634208 39.3095 -0.359157 36.1099 0.197943C32.6378 0.8084 30.0744 2.93794 27.5956 4.99842C26.1482 6.32522 24.5311 7.45349 22.7869 8.35358L22.7587 8.3677L22.7414 8.37712C21.0511 9.26062 19.4178 10.2497 17.8513 11.3384C15.5092 12.987 13.0296 14.4303 10.44 15.6524C10.0251 15.376 9.5771 15.153 9.10661 14.9886C8.48142 14.7993 7.82439 14.7392 7.17531 14.8118C6.52623 14.8843 5.89861 15.0881 5.33047 15.4107C4.67813 15.7626 4.10424 16.244 3.64385 16.8254C3.18345 17.4069 2.84621 18.0762 2.6527 18.7925C2.2772 20.3925 2.42496 22.071 3.07418 23.5805C3.32734 24.0689 3.47504 24.6053 3.50771 25.1547C3.54037 25.704 3.45726 26.2542 3.26378 26.7693C1.2071 31.7184 0.0998592 37.0114 0 42.3712C0 60.4417 12.7793 76.1582 30.8672 81.7605L32.2774 83.6547C32.6938 84.2121 32.9142 84.892 32.9041 85.5881C32.9062 87.236 33.5607 88.8159 34.7242 89.9811C35.8877 91.1464 37.4651 91.802 39.1105 91.804H49.5661C50.8523 91.818 52.1216 91.5106 53.2592 90.9095C54.1991 90.3891 54.9872 89.6322 55.5458 88.7136C56.1044 87.795 56.4142 86.7464 56.4447 85.6712C56.4983 85.0115 56.657 84.3646 56.9147 83.7551C57.4631 82.6833 58.4377 82.2972 60.1127 81.715L61.1954 81.329C63.21 80.6464 65.1834 79.8473 67.1056 78.9358C70.0731 77.4636 72.8731 75.6747 75.457 73.6002C80.5187 69.5513 84.5816 64.3894 87.3307 58.5146C89.6569 53.451 90.8668 47.945 90.8781 42.3712C90.8573 38.1847 90.1425 34.0308 88.7628 30.0789L86.3044 22.8821ZM36.6536 3.29573C39.1293 2.85633 41.959 3.7116 44.958 4.61081C47.3651 5.43749 49.862 5.97379 52.3959 6.20835C53.4772 6.24666 54.5599 6.20259 55.6346 6.07653C52.9983 7.6735 50.4844 9.46483 48.1137 11.4357C47.8145 11.7098 47.6331 12.0893 47.6075 12.4945C47.5819 12.8998 47.7142 13.2992 47.9765 13.6088C48.2388 13.9185 48.6107 14.1142 49.0141 14.155C49.4174 14.1957 49.8209 14.0782 50.1396 13.8273C50.2289 13.7504 59.1459 6.22247 65.158 5.5414C65.4357 5.61134 65.7075 5.70263 65.9712 5.81446C67.9094 6.64304 70.6091 9.84441 72.9907 12.6691C73.4451 13.2074 73.8917 13.7347 74.3367 14.2526L73.4483 13.5856C72.6163 12.956 71.6247 12.5725 70.5861 12.4787C69.5476 12.385 68.5035 12.5847 67.5725 13.0552L65.205 14.24C64.4808 14.6026 63.8436 15.1178 63.337 15.7503C62.8304 16.3828 62.4665 17.1176 62.2703 17.9043L61.6059 20.5721C61.5199 20.9199 61.3594 21.2449 61.1357 21.5245C60.912 21.8041 60.6303 22.0317 60.3101 22.1916L59.4264 22.6326C58.8871 22.9025 58.395 23.2581 57.9692 23.6856L55.4481 26.2075L53.7058 21.4996C53.4078 20.7033 52.8747 20.0168 52.1774 19.5315C51.4801 19.0462 50.6518 18.7851 49.8027 18.7831H45.8401C45.656 18.7832 45.4753 18.7337 45.3168 18.6398C45.1583 18.5459 45.0279 18.4112 44.9392 18.2496L43.7155 16.0447C43.0356 14.821 42.0266 13.8129 40.8032 13.1349C39.5797 12.4569 38.191 12.1363 36.7946 12.2093L34.6183 12.3317C34.365 12.34 34.1172 12.257 33.92 12.0977C33.7227 11.9385 33.5891 11.7135 33.5434 11.4639C33.3805 10.4528 32.8527 9.53667 32.0602 8.88932C31.2678 8.24197 30.2656 7.90839 29.2439 7.95184L28.918 7.96753L29.5933 7.41357C31.8622 5.53198 34.0009 3.75554 36.6536 3.29573ZM19.5639 13.9669C21.2717 12.8527 22.8637 11.8186 23.8351 11.3415L29.3912 11.0889C29.6455 11.0711 29.897 11.1511 30.0944 11.3127C30.2918 11.4742 30.4203 11.7051 30.4536 11.9583C30.6143 12.9785 31.1481 13.9025 31.951 14.5507C32.754 15.1989 33.7689 15.525 34.7985 15.4656L36.9764 15.3432C37.784 15.2982 38.5878 15.4825 39.2955 15.8748C40.0031 16.267 40.5858 16.8514 40.9766 17.5606L42.1956 19.7733C42.3143 19.9645 42.4484 20.1456 42.5967 20.3148C41.4148 20.7539 40.1643 20.9787 38.9036 20.9786C36.8154 20.8556 34.7476 20.4971 32.7396 19.9099C30.4037 19.1642 27.9572 18.826 25.507 18.9102C22.3905 19.3026 20.2924 22.5793 19.2724 24.6382C18.4536 24.2402 17.7111 23.701 17.0788 23.0453C16.4254 22.3062 15.7752 21.4588 15.0873 20.5611C14.3995 19.6635 13.7085 18.7643 12.9893 17.9451C15.2506 16.7384 17.4453 15.4104 19.5639 13.9669ZM84.4852 57.1932C81.9392 62.6283 78.1783 67.4034 73.4937 71.149C71.0859 73.0834 68.4765 74.7518 65.7111 76.1252C63.8996 76.9805 62.0403 77.7303 60.1425 78.3709L59.0833 78.7491C58.0579 78.9741 57.0895 79.4072 56.2379 80.0218C55.3863 80.6364 54.6696 81.4194 54.132 82.3224C53.7105 83.235 53.4456 84.2122 53.3485 85.213C53.1245 86.7368 52.9647 87.4963 51.7629 88.1539C51.0853 88.5039 50.3315 88.6797 49.5693 88.6655H39.1105C38.7009 88.6626 38.2959 88.5784 37.9191 88.4176C37.5422 88.2568 37.201 88.0227 36.9152 87.7289C36.6294 87.435 36.4047 87.0873 36.2541 86.7058C36.1034 86.3243 36.03 85.9166 36.0378 85.5065C36.0306 84.624 35.8362 83.7532 35.4675 82.9516C36.4734 83.1588 37.5044 83.3236 38.5292 83.4679C38.5574 83.4679 38.5824 83.4821 38.6106 83.4868C38.6639 83.4962 38.7156 83.4978 38.7673 83.5025C39.04 83.5386 39.311 83.5841 39.5852 83.6155C39.6466 83.623 39.7083 83.6267 39.7701 83.6264C40.1621 83.6157 40.5357 83.4582 40.8174 83.1849C41.099 82.9117 41.2681 82.5427 41.2913 82.1507C41.3145 81.7587 41.1902 81.3722 40.9428 81.0675C40.6954 80.7629 40.3429 80.5622 39.955 80.5051C39.662 80.4706 39.3753 80.4235 39.0838 80.3843C35.1127 79.5824 31.3438 77.9869 28.0023 75.6931C24.6608 73.3993 21.8153 70.4544 19.6359 67.0343C20.4554 64.3115 22.953 55.3666 21.9032 50.7136C21.812 50.3074 21.5634 49.9541 21.2121 49.7315C20.8608 49.5088 20.4356 49.4351 20.03 49.5264C19.6244 49.6178 19.2717 49.8668 19.0494 50.2186C18.8271 50.5704 18.7534 50.9963 18.8447 51.4025C19.4714 54.1755 18.4044 59.5158 17.4047 63.381C14.5975 58.118 12.6848 52.4236 11.7452 46.5314C11.7204 46.3268 11.6556 46.129 11.5545 45.9495C11.4534 45.7699 11.318 45.6121 11.156 45.4849C10.994 45.3578 10.8085 45.2638 10.6103 45.2085C10.412 45.1531 10.2048 45.1374 10.0005 45.1622C9.79618 45.187 9.59874 45.2519 9.41946 45.3532C9.24018 45.4544 9.08256 45.5901 8.95562 45.7523C8.82867 45.9146 8.73488 46.1003 8.6796 46.2989C8.62431 46.4975 8.60862 46.705 8.63342 46.9096C9.82007 54.3425 12.4726 61.4644 16.4364 67.8597C16.5223 68.1283 16.6793 68.3686 16.8908 68.5549C18.1144 70.3923 19.4886 72.1245 20.9991 73.7336C10.1376 66.7157 3.13373 55.1814 3.13373 42.3712C3.23116 37.4218 4.25866 32.5351 6.16247 27.9666C6.50445 27.1035 6.66985 26.1803 6.64886 25.2519C6.62786 24.3235 6.4209 23.4088 6.04026 22.562C5.6031 21.6366 5.47827 20.594 5.68458 19.5913C5.76833 19.2889 5.91284 19.0069 6.10925 18.7624C6.30566 18.5179 6.54984 18.3162 6.82682 18.1695C7.21652 17.9324 7.68415 17.8596 8.12732 17.9671C9.49362 18.419 11.1467 20.5721 12.6038 22.4725C13.2948 23.3733 14.014 24.3039 14.7332 25.1262C15.9595 26.38 17.4241 27.3751 19.0405 28.053C20.3634 28.5899 21.5635 29.3908 22.5675 30.4069C25.0698 33.3509 26.8482 40.9588 27.3261 43.6376C27.403 44.0434 27.6365 44.4025 27.976 44.637C28.3155 44.8715 28.7337 44.9624 29.1397 44.8901C29.5457 44.8179 29.907 44.5882 30.145 44.2509C30.383 43.9136 30.4787 43.4959 30.4112 43.0884C30.3345 42.6615 28.5122 32.5662 24.9554 28.3778C24.1317 27.4483 23.1477 26.6749 22.0505 26.0945C22.8605 24.4671 24.3083 22.2215 25.894 22.0222C27.9617 22.0067 30.0187 22.3214 31.9875 22.9543C34.2395 23.6115 36.5608 24.0013 38.9036 24.1156C41.5431 24.1319 44.1291 23.3706 46.34 21.9264H49.8027C50.0125 21.9267 50.2173 21.9909 50.3897 22.1107C50.5621 22.2304 50.6941 22.3998 50.7679 22.5965L52.7187 27.8568L49.2089 28.5598C48.1684 28.7719 47.2088 29.2738 46.4404 30.0078C45.6721 30.7418 45.1262 31.6781 44.8656 32.7091L44.4206 34.4886C44.3251 34.8696 44.1408 35.2226 43.8829 35.5185C43.625 35.8145 43.3007 36.045 42.9367 36.1913L38.5965 37.9301C37.9058 38.2088 37.277 38.6217 36.7464 39.1451C36.2158 39.6684 35.7939 40.2918 35.5051 40.9792L34.1936 44.1178C34.1511 44.2222 34.1191 44.3304 34.0981 44.4411C33.3241 48.7121 33.1369 53.0691 33.5418 57.3909C31.8854 54.4976 31.2289 51.1376 31.6741 47.8324C31.7057 47.6262 31.6958 47.4158 31.6452 47.2134C31.5946 47.0111 31.5042 46.8209 31.3793 46.6539C31.2545 46.487 31.0976 46.3466 30.9179 46.2411C30.7383 46.1356 30.5394 46.067 30.333 46.0394C30.1265 46.0117 29.9167 46.0256 29.7156 46.0801C29.5146 46.1346 29.3265 46.2288 29.1622 46.357C28.9979 46.4852 28.8608 46.645 28.7589 46.8269C28.657 47.0088 28.5923 47.2093 28.5686 47.4165C28.2107 50.0666 28.4384 52.763 29.2355 55.3152C30.0326 57.8675 31.3796 60.2132 33.1815 62.1867L34.5634 63.7042C35.634 68.3595 37.3987 72.8267 39.7983 76.9554C41.5985 80.0223 44.3311 82.4319 47.5966 83.832C47.9789 83.9956 48.4104 84.0004 48.7963 83.8453C49.1821 83.6902 49.4906 83.3879 49.6539 83.005C49.8172 82.6221 49.822 82.1899 49.6671 81.8035C49.5122 81.4171 49.2105 81.1081 48.8281 80.9445C46.18 79.8119 43.9638 77.8595 42.5043 75.3735C37.1992 66.2613 35.3 55.5574 37.1456 45.1724L38.3897 42.1907C38.6484 41.5781 39.1392 41.0933 39.7544 40.8427L44.0947 39.1055C44.9184 38.7732 45.6521 38.2507 46.2361 37.5807C46.8201 36.9107 47.238 36.112 47.4556 35.2497L47.899 33.4686C48.0148 33.0122 48.2573 32.598 48.5984 32.2739C48.9394 31.9499 49.3651 31.7291 49.8262 31.6372L53.9502 30.8118C55.037 30.5948 56.0349 30.0596 56.8176 29.2739L60.1848 25.8936C60.3721 25.7029 60.5891 25.5439 60.8272 25.4228L61.7109 24.9818C62.4351 24.6193 63.0723 24.1041 63.5789 23.4715C64.0855 22.839 64.4494 22.1042 64.6456 21.3175L65.31 18.6497C65.396 18.3019 65.5565 17.977 65.7802 17.6974C66.0039 17.4177 66.2856 17.1901 66.6058 17.0302L68.9749 15.8454C69.3858 15.6379 69.8465 15.5498 70.3048 15.5911C70.7632 15.6324 71.2008 15.8015 71.568 16.0792L74.755 18.4724C75.7254 19.2077 76.9071 19.609 78.1238 19.6164H80.6715C81.3313 19.6514 81.9507 19.9458 82.3949 20.4357C82.8392 20.9256 83.0723 21.5713 83.0437 22.2324C83.0567 22.7914 83.1533 23.3453 83.3305 23.8755L85.8014 31.1099C87.0662 34.7303 87.7228 38.5357 87.7443 42.3712C87.7332 47.4889 86.6217 52.5443 84.4852 57.1932Z" fill="#F7B12E"/>
</g>
<defs>
<clipPath id="clip0_62_74">
<rect width="90.8781" height="92" fill="white"/>
</clipPath>
</defs>
</svg>
