<svg width="197" height="53" viewBox="0 0 197 53" fill="none" xmlns="http://www.w3.org/2000/svg">
<g clip-path="url(#clip0_226_51)">
<path d="M49.5854 39.1316C49.5854 41.4156 47.7353 43.2639 45.4531 43.2639H4.13233C1.85016 43.2639 0 41.4138 0 39.1316H49.5854Z" fill="#F7B12E"/>
<path d="M49.5854 30.6376V34.9992C47.0312 36.0566 44.0752 36.1416 41.3214 34.9992C38.5675 33.8575 35.611 33.9424 33.0567 34.9992C30.5025 36.0566 27.5466 36.1416 24.7927 34.9992C22.0389 33.8575 19.083 33.9424 16.5287 34.9992C13.9744 36.0566 11.0179 36.1416 8.26403 34.9992C5.51018 33.8575 2.55427 33.9424 0 34.9992V30.6376C3.24413 29.6967 6.68659 29.8727 9.84643 31.1824C11.4883 31.8642 13.3001 31.8642 14.9488 31.1824C18.6348 29.6589 22.694 29.6589 26.3745 31.1824C28.0189 31.8667 29.8287 31.8623 31.4768 31.1824C35.1654 29.657 39.227 29.6589 42.9032 31.1824C44.5494 31.8667 46.3593 31.8623 48.0055 31.1824C48.5243 30.9679 49.053 30.7907 49.5854 30.6376Z" fill="white"/>
<path d="M37.1891 10.2065C34.9292 10.2065 32.8169 10.822 30.9909 11.8788C29.1649 10.8214 27.0526 10.2065 24.7927 10.2065C22.5329 10.2065 20.418 10.822 18.5945 11.8788C16.771 10.8214 14.6562 10.2065 12.3964 10.2065C5.55233 10.2065 0 15.757 0 22.6029V26.7352H49.5854V22.6029C49.5854 15.757 44.0331 10.2065 37.1891 10.2065ZM4.13233 22.6029C4.13233 18.0392 7.83264 14.3389 12.3964 14.3389C15.4471 14.3389 18.0819 16.0111 19.5143 18.4712H24.0737C23.5977 17.1429 22.9078 15.9206 22.0382 14.8428C22.9041 14.5366 23.8227 14.3389 24.7927 14.3389C27.8416 14.3389 30.4783 16.0111 31.9107 18.4712H36.4701C35.9941 17.1429 35.3042 15.9206 34.4346 14.8453C35.3005 14.5366 36.2191 14.3389 37.1891 14.3389C41.7509 14.3389 45.4531 18.0392 45.4531 22.6029H4.13233Z" fill="#F7B12E"/>
</g>
<path d="M70.0749 39.24C67.4149 39.24 65.2849 38.74 63.6849 37.74C62.0849 36.72 61.2849 35.17 61.2849 33.09C61.2849 31.99 61.4749 31.15 61.8549 30.57C62.2349 29.99 62.7949 29.7 63.5349 29.7C64.0749 29.7 64.5149 29.84 64.8549 30.12C65.1949 30.4 65.3649 30.76 65.3649 31.2C65.3649 31.6 65.3349 31.95 65.2749 32.25C65.2749 32.33 65.2549 32.47 65.2149 32.67C65.1949 32.87 65.1849 33.08 65.1849 33.3C65.1849 34.2 65.6349 34.87 66.5349 35.31C67.4549 35.75 68.7349 35.97 70.3749 35.97C72.0749 35.97 73.4049 35.67 74.3649 35.07C75.3249 34.45 75.8049 33.59 75.8049 32.49C75.8049 31.81 75.5849 31.23 75.1449 30.75C74.7049 30.25 74.1549 29.84 73.4949 29.52C72.8349 29.18 71.9049 28.77 70.7049 28.29C69.1649 27.69 67.9049 27.12 66.9249 26.58C65.9649 26.04 65.1349 25.31 64.4349 24.39C63.7549 23.45 63.4149 22.29 63.4149 20.91C63.4149 19.47 63.7949 18.19 64.5549 17.07C65.3349 15.95 66.4449 15.08 67.8849 14.46C69.3449 13.84 71.0549 13.53 73.0149 13.53C74.4749 13.53 75.8149 13.75 77.0349 14.19C78.2549 14.61 79.2249 15.26 79.9449 16.14C80.6849 17.02 81.0549 18.1 81.0549 19.38C81.0549 20.64 80.8649 21.59 80.4849 22.23C80.1049 22.87 79.5449 23.19 78.8049 23.19C78.2849 23.19 77.8449 23.03 77.4849 22.71C77.1449 22.39 76.9749 22.01 76.9749 21.57C76.9749 21.19 77.0049 20.84 77.0649 20.52C77.1249 19.92 77.1549 19.54 77.1549 19.38C77.1549 18.54 76.7449 17.9 75.9249 17.46C75.1049 17.02 74.0849 16.8 72.8649 16.8C71.1449 16.8 69.8249 17.12 68.9049 17.76C68.0049 18.38 67.5549 19.26 67.5549 20.4C67.5549 21.16 67.7849 21.81 68.2449 22.35C68.7249 22.89 69.3149 23.34 70.0149 23.7C70.7149 24.06 71.6949 24.49 72.9549 24.99C74.4749 25.61 75.6949 26.17 76.6149 26.67C77.5349 27.17 78.3149 27.85 78.9549 28.71C79.6149 29.57 79.9449 30.63 79.9449 31.89C79.9449 34.25 79.0449 36.07 77.2449 37.35C75.4649 38.61 73.0749 39.24 70.0749 39.24ZM85.4192 39.15C84.5192 39.15 83.7792 38.74 83.1992 37.92C82.6392 37.08 82.3592 36.04 82.3592 34.8C82.3592 33.3 82.4592 31.93 82.6592 30.69C82.8592 29.43 83.1892 28.1 83.6492 26.7C83.8492 26.1 84.1292 25.67 84.4892 25.41C84.8492 25.15 85.4192 25.02 86.1992 25.02C86.6392 25.02 86.9392 25.09 87.0992 25.23C87.2792 25.37 87.3692 25.58 87.3692 25.86C87.3692 26.02 87.2592 26.56 87.0392 27.48C86.8392 28.22 86.6792 28.89 86.5592 29.49C86.1592 31.59 85.9592 32.99 85.9592 33.69C85.9592 34.11 86.0092 34.41 86.1092 34.59C86.2092 34.75 86.3692 34.83 86.5892 34.83C86.8892 34.83 87.2592 34.53 87.6992 33.93C88.1592 33.33 88.6392 32.42 89.1392 31.2C89.6592 29.98 90.1592 28.48 90.6392 26.7C90.7992 26.1 91.0392 25.67 91.3592 25.41C91.6992 25.15 92.1992 25.02 92.8592 25.02C93.3192 25.02 93.6392 25.08 93.8192 25.2C93.9992 25.3 94.0892 25.5 94.0892 25.8C94.0892 26.3 93.8392 27.67 93.3392 29.91C92.7792 32.47 92.4992 34.05 92.4992 34.65C92.4992 35.03 92.5792 35.33 92.7392 35.55C92.8992 35.75 93.1092 35.85 93.3692 35.85C93.7692 35.85 94.2392 35.61 94.7792 35.13C95.3392 34.63 96.0792 33.83 96.9992 32.73C97.2392 32.45 97.5092 32.31 97.8092 32.31C98.0692 32.31 98.2692 32.43 98.4092 32.67C98.5692 32.91 98.6492 33.24 98.6492 33.66C98.6492 34.46 98.4592 35.08 98.0792 35.52C97.2192 36.58 96.2892 37.45 95.2892 38.13C94.3092 38.81 93.1892 39.15 91.9292 39.15C90.9692 39.15 90.2592 38.78 89.7992 38.04C89.3592 37.3 89.1392 36.26 89.1392 34.92C88.7992 36.28 88.2892 37.33 87.6092 38.07C86.9292 38.79 86.1992 39.15 85.4192 39.15ZM112.237 32.31C112.497 32.31 112.697 32.43 112.837 32.67C112.997 32.91 113.077 33.24 113.077 33.66C113.077 34.46 112.887 35.08 112.507 35.52C111.647 36.58 110.717 37.45 109.717 38.13C108.737 38.81 107.617 39.15 106.357 39.15C105.297 39.15 104.437 38.77 103.777 38.01C102.637 38.75 101.447 39.13 100.207 39.15C99.9466 43.01 99.3566 46.23 98.4366 48.81C97.5166 51.41 96.1666 52.71 94.3866 52.71C93.3066 52.71 92.5066 52.32 91.9866 51.54C91.4666 50.76 91.2066 49.68 91.2066 48.3C91.2066 46.34 91.6566 44.05 92.5566 41.43C93.4566 38.83 94.8466 35.96 96.7266 32.82C96.7266 29.9 96.7066 27.87 96.6666 26.73C96.6466 26.15 96.8766 25.69 97.3566 25.35C97.8366 25.01 98.4366 24.84 99.1566 24.84C99.5766 24.84 99.8766 24.93 100.057 25.11C100.257 25.27 100.367 25.6 100.387 26.1C100.387 26.6 100.397 26.97 100.417 27.21C101.057 26.41 101.687 25.84 102.307 25.5C102.927 25.14 103.587 24.96 104.287 24.96C105.407 24.96 106.317 25.41 107.017 26.31C107.737 27.21 108.097 28.39 108.097 29.85C108.097 30.91 107.927 31.94 107.587 32.94C107.247 33.94 106.777 34.85 106.177 35.67C106.597 35.79 106.947 35.85 107.227 35.85C107.887 35.85 108.517 35.61 109.117 35.13C109.717 34.65 110.487 33.85 111.427 32.73C111.667 32.45 111.937 32.31 112.237 32.31ZM100.357 36.27C101.077 36.11 101.737 35.72 102.337 35.1C102.957 34.46 103.447 33.68 103.807 32.76C104.167 31.82 104.347 30.84 104.347 29.82C104.347 29.22 104.227 28.77 103.987 28.47C103.747 28.15 103.427 27.99 103.027 27.99C102.307 27.99 101.437 28.75 100.417 30.27C100.397 31.15 100.387 32.44 100.387 34.14C100.387 35.06 100.377 35.77 100.357 36.27ZM94.6266 49.77C95.1666 49.77 95.6166 48.59 95.9766 46.23C96.3366 43.89 96.5666 40.97 96.6666 37.47C95.8066 39.47 95.1266 41.38 94.6266 43.2C94.1266 45.02 93.8766 46.55 93.8766 47.79C93.8766 48.43 93.9566 48.92 94.1166 49.26C94.2566 49.6 94.4266 49.77 94.6266 49.77ZM124.04 32.31C124.3 32.31 124.5 32.43 124.64 32.67C124.8 32.91 124.88 33.24 124.88 33.66C124.88 34.46 124.69 35.08 124.31 35.52C123.57 36.42 122.52 37.25 121.16 38.01C119.82 38.77 118.38 39.15 116.84 39.15C114.74 39.15 113.11 38.58 111.95 37.44C110.79 36.3 110.21 34.74 110.21 32.76C110.21 31.38 110.5 30.1 111.08 28.92C111.66 27.72 112.46 26.77 113.48 26.07C114.52 25.37 115.69 25.02 116.99 25.02C118.15 25.02 119.08 25.37 119.78 26.07C120.48 26.75 120.83 27.68 120.83 28.86C120.83 30.24 120.33 31.43 119.33 32.43C118.35 33.41 116.68 34.19 114.32 34.77C114.82 35.69 115.77 36.15 117.17 36.15C118.07 36.15 119.09 35.84 120.23 35.22C121.39 34.58 122.39 33.75 123.23 32.73C123.47 32.45 123.74 32.31 124.04 32.31ZM116.48 27.96C115.74 27.96 115.11 28.39 114.59 29.25C114.09 30.11 113.84 31.15 113.84 32.37V32.43C115.02 32.15 115.95 31.73 116.63 31.17C117.31 30.61 117.65 29.96 117.65 29.22C117.65 28.84 117.54 28.54 117.32 28.32C117.12 28.08 116.84 27.96 116.48 27.96ZM134.557 29.13C134.997 29.13 135.367 29.29 135.667 29.61C135.987 29.91 136.147 30.29 136.147 30.75C136.147 31.01 136.087 31.29 135.967 31.59C135.647 32.33 135.197 32.95 134.617 33.45C134.037 33.95 133.397 34.2 132.697 34.2C132.137 34.2 131.657 34 131.257 33.6C130.877 33.2 130.687 32.66 130.687 31.98C130.687 31.6 130.707 31.19 130.747 30.75C130.787 30.43 130.807 30.21 130.807 30.09C130.807 29.93 130.767 29.81 130.687 29.73C130.627 29.65 130.547 29.61 130.447 29.61C130.167 29.61 129.787 29.95 129.307 30.63C128.827 31.29 128.347 32.17 127.867 33.27C127.387 34.37 126.997 35.53 126.697 36.75C126.477 37.71 126.227 38.35 125.947 38.67C125.667 38.99 125.207 39.15 124.567 39.15C123.807 39.15 123.267 38.75 122.947 37.95C122.647 37.15 122.497 35.87 122.497 34.11C122.497 31.51 122.867 29.04 123.607 26.7C123.787 26.12 124.077 25.7 124.477 25.44C124.897 25.16 125.477 25.02 126.217 25.02C126.617 25.02 126.897 25.07 127.057 25.17C127.217 25.27 127.297 25.46 127.297 25.74C127.297 26.06 127.147 26.78 126.847 27.9C126.647 28.7 126.487 29.4 126.367 30C126.247 30.6 126.147 31.34 126.067 32.22C126.727 30.5 127.467 29.1 128.287 28.02C129.107 26.94 129.907 26.17 130.687 25.71C131.467 25.25 132.177 25.02 132.817 25.02C133.397 25.02 133.837 25.19 134.137 25.53C134.457 25.85 134.617 26.33 134.617 26.97C134.617 27.35 134.507 28.07 134.287 29.13H134.557Z" fill="white"/>
<path d="M145.661 39.24C143.001 39.24 140.871 38.74 139.271 37.74C137.671 36.72 136.871 35.17 136.871 33.09C136.871 31.99 137.061 31.15 137.441 30.57C137.821 29.99 138.381 29.7 139.121 29.7C139.661 29.7 140.101 29.84 140.441 30.12C140.781 30.4 140.951 30.76 140.951 31.2C140.951 31.6 140.921 31.95 140.861 32.25C140.861 32.33 140.841 32.47 140.801 32.67C140.781 32.87 140.771 33.08 140.771 33.3C140.771 34.2 141.221 34.87 142.121 35.31C143.041 35.75 144.321 35.97 145.961 35.97C147.661 35.97 148.991 35.67 149.951 35.07C150.911 34.45 151.391 33.59 151.391 32.49C151.391 31.81 151.171 31.23 150.731 30.75C150.291 30.25 149.741 29.84 149.081 29.52C148.421 29.18 147.491 28.77 146.291 28.29C144.751 27.69 143.491 27.12 142.511 26.58C141.551 26.04 140.721 25.31 140.021 24.39C139.341 23.45 139.001 22.29 139.001 20.91C139.001 19.47 139.381 18.19 140.141 17.07C140.921 15.95 142.031 15.08 143.471 14.46C144.931 13.84 146.641 13.53 148.601 13.53C150.061 13.53 151.401 13.75 152.621 14.19C153.841 14.61 154.811 15.26 155.531 16.14C156.271 17.02 156.641 18.1 156.641 19.38C156.641 20.64 156.451 21.59 156.071 22.23C155.691 22.87 155.131 23.19 154.391 23.19C153.871 23.19 153.431 23.03 153.071 22.71C152.731 22.39 152.561 22.01 152.561 21.57C152.561 21.19 152.591 20.84 152.651 20.52C152.711 19.92 152.741 19.54 152.741 19.38C152.741 18.54 152.331 17.9 151.511 17.46C150.691 17.02 149.671 16.8 148.451 16.8C146.731 16.8 145.411 17.12 144.491 17.76C143.591 18.38 143.141 19.26 143.141 20.4C143.141 21.16 143.371 21.81 143.831 22.35C144.311 22.89 144.901 23.34 145.601 23.7C146.301 24.06 147.281 24.49 148.541 24.99C150.061 25.61 151.281 26.17 152.201 26.67C153.121 27.17 153.901 27.85 154.541 28.71C155.201 29.57 155.531 30.63 155.531 31.89C155.531 34.25 154.631 36.07 152.831 37.35C151.051 38.61 148.661 39.24 145.661 39.24ZM161.005 39.15C160.105 39.15 159.365 38.74 158.785 37.92C158.225 37.08 157.945 36.04 157.945 34.8C157.945 33.3 158.045 31.93 158.245 30.69C158.445 29.43 158.775 28.1 159.235 26.7C159.435 26.1 159.715 25.67 160.075 25.41C160.435 25.15 161.005 25.02 161.785 25.02C162.225 25.02 162.525 25.09 162.685 25.23C162.865 25.37 162.955 25.58 162.955 25.86C162.955 26.02 162.845 26.56 162.625 27.48C162.425 28.22 162.265 28.89 162.145 29.49C161.745 31.59 161.545 32.99 161.545 33.69C161.545 34.11 161.595 34.41 161.695 34.59C161.795 34.75 161.955 34.83 162.175 34.83C162.475 34.83 162.845 34.53 163.285 33.93C163.745 33.33 164.225 32.42 164.725 31.2C165.245 29.98 165.745 28.48 166.225 26.7C166.385 26.1 166.625 25.67 166.945 25.41C167.285 25.15 167.785 25.02 168.445 25.02C168.905 25.02 169.225 25.08 169.405 25.2C169.585 25.3 169.675 25.5 169.675 25.8C169.675 26.3 169.425 27.67 168.925 29.91C168.365 32.47 168.085 34.05 168.085 34.65C168.085 35.03 168.165 35.33 168.325 35.55C168.485 35.75 168.695 35.85 168.955 35.85C169.355 35.85 169.825 35.61 170.365 35.13C170.925 34.63 171.665 33.83 172.585 32.73C172.825 32.45 173.095 32.31 173.395 32.31C173.655 32.31 173.855 32.43 173.995 32.67C174.155 32.91 174.235 33.24 174.235 33.66C174.235 34.46 174.045 35.08 173.665 35.52C172.805 36.58 171.875 37.45 170.875 38.13C169.895 38.81 168.775 39.15 167.515 39.15C166.555 39.15 165.845 38.78 165.385 38.04C164.945 37.3 164.725 36.26 164.725 34.92C164.385 36.28 163.875 37.33 163.195 38.07C162.515 38.79 161.785 39.15 161.005 39.15ZM177.743 39.15C175.743 39.15 174.283 38.38 173.363 36.84C172.463 35.3 172.013 33.07 172.013 30.15C172.013 27.57 172.333 24.77 172.973 21.75C173.613 18.71 174.543 16.13 175.763 14.01C177.003 11.87 178.473 10.8 180.173 10.8C181.093 10.8 181.833 11.2 182.393 12C182.953 12.78 183.233 13.8 183.233 15.06C183.233 16.7 182.923 18.33 182.303 19.95C181.683 21.57 180.653 23.27 179.213 25.05C180.193 25.13 181.043 25.46 181.763 26.04C182.503 26.62 183.063 27.37 183.443 28.29C183.843 29.21 184.043 30.21 184.043 31.29C184.043 32.79 183.743 34.14 183.143 35.34C182.563 36.54 181.793 37.48 180.833 38.16C179.873 38.82 178.843 39.15 177.743 39.15ZM175.973 27.09C177.293 24.67 178.343 22.54 179.123 20.7C179.923 18.84 180.323 17.19 180.323 15.75C180.323 15.11 180.243 14.62 180.083 14.28C179.943 13.94 179.743 13.77 179.483 13.77C179.083 13.77 178.643 14.37 178.163 15.57C177.703 16.75 177.273 18.36 176.873 20.4C176.473 22.44 176.173 24.67 175.973 27.09ZM177.863 35.91C178.543 35.91 179.113 35.54 179.573 34.8C180.053 34.06 180.293 32.98 180.293 31.56C180.293 30.46 180.093 29.63 179.693 29.07C179.293 28.51 178.813 28.23 178.253 28.23C177.553 28.23 176.963 28.59 176.483 29.31C176.003 30.03 175.763 31.08 175.763 32.46C175.763 33.66 175.963 34.54 176.363 35.1C176.763 35.64 177.263 35.91 177.863 35.91ZM191.474 39.81C190.434 39.81 189.634 39.57 189.074 39.09C188.534 38.61 188.264 38.07 188.264 37.47C188.264 36.95 188.454 36.5 188.834 36.12C189.214 35.74 189.774 35.55 190.514 35.55C190.774 35.55 191.074 35.58 191.414 35.64C191.774 35.68 192.044 35.71 192.224 35.73C192.204 35.21 192.084 34.72 191.864 34.26C191.664 33.8 191.404 33.36 191.084 32.94C190.764 32.5 190.464 32.12 190.184 31.8C189.564 32.98 188.944 33.96 188.324 34.74C187.724 35.52 187.064 36.26 186.344 36.96C185.984 37.32 185.604 37.5 185.204 37.5C184.884 37.5 184.624 37.39 184.424 37.17C184.224 36.93 184.124 36.64 184.124 36.3C184.124 35.9 184.264 35.53 184.544 35.19L184.934 34.71C186.034 33.35 186.864 32.23 187.424 31.35C187.784 30.77 188.144 30.08 188.504 29.28C188.884 28.48 189.374 27.39 189.974 26.01C190.354 25.13 191.144 24.69 192.344 24.69C192.904 24.69 193.294 24.74 193.514 24.84C193.734 24.94 193.844 25.1 193.844 25.32C193.844 25.44 193.804 25.63 193.724 25.89C193.644 26.15 193.534 26.41 193.394 26.67C193.034 27.39 192.854 28 192.854 28.5C192.854 28.8 192.954 29.13 193.154 29.49C193.374 29.85 193.704 30.3 194.144 30.84C194.784 31.68 195.264 32.4 195.584 33C195.924 33.58 196.094 34.22 196.094 34.92C196.094 35.76 195.894 36.56 195.494 37.32C195.114 38.06 194.574 38.66 193.874 39.12C193.174 39.58 192.374 39.81 191.474 39.81Z" fill="#F7B12E"/>
<defs>
<clipPath id="clip0_226_51">
<rect width="49.5854" height="33.4702" fill="white" transform="translate(0 10)"/>
</clipPath>
</defs>
</svg>
